<svg xmlns="http://www.w3.org/2000/svg" xmlns:xlink="http://www.w3.org/1999/xlink" width="11px" height="14px" viewBox="0 0 11 14" version="1.1">
      <!-- Generator: Sketch 52.1 (67048) - http://www.bohemiancoding.com/sketch -->
      <title>kuziqiuhuang</title>
      <desc>Created with Sketch.</desc>
      <g id="选服" stroke="none" stroke-width="1" fill="none" fill-rule="evenodd">
          <g id="选服首页（秋黄）" transform="translate(-17.000000, -529.000000)">
              <g id="页面"/>
              <path d="M17.7114468,529.463728 C17.7057884,529.454646 17.7029171,529.445488 17.7029171,529.436262 C17.7029171,529.19525 19.6660971,529 22.0882484,529 C24.5100988,529 26.4733218,529.195265 26.4733003,529.436262 C26.4733003,529.441703 26.4723018,529.44712 26.470322,529.452512 C26.4713335,529.451856 26.4723335,529.451199 26.4733218,529.450542 L26.4733218,530.088758 L26.472355,530.088758 C26.4295366,530.34617 24.4849406,530.552964 22.0922015,530.552964 C19.6991616,530.552964 17.7545441,530.346155 17.7117042,530.088758 L17.7029171,530.088758 L17.7029171,529.458735 C17.7056857,529.460402 17.7085291,529.462067 17.7114468,529.463728 Z M19.9737406,529.805147 C20.5919773,529.835033 21.3124678,529.852172 22.0816956,529.852172 C22.8509082,529.852172 23.5713745,529.835033 24.1895841,529.805146 C25.0983266,529.75063 25.8175681,529.661961 26.2090552,529.55456 C26.2319506,529.540034 26.2437593,529.525222 26.243761,529.510183 C26.243761,529.321235 24.380376,529.16838 22.0816956,529.16838 C19.7829293,529.16838 17.9194154,529.321235 17.9194154,529.510183 C17.9194154,529.525199 17.9311874,529.539989 17.9540145,529.554494 C18.3455001,529.661937 19.0648544,529.750625 19.9737406,529.805147 Z M25.7828562,529.553195 C25.7828562,529.661318 24.1211667,529.749075 22.0714046,529.749075 C20.0217928,529.749075 18.3601464,529.661318 18.3601464,529.553195 C18.3601464,529.445071 20.0217928,529.357114 22.0714046,529.357114 C24.1211667,529.357114 25.7828562,529.445071 25.7828562,529.553195 Z M27.1174241,533.011195 C25.7280495,532.615452 25.6956295,530.844779 25.690774,530.643442 C26.0138135,530.594314 26.3084505,530.535963 26.560527,530.466253 C27.0365354,530.633158 27.1638949,531.635219 27.1174241,533.011195 Z M18.3602753,530.617632 C18.3553983,530.820846 18.3209373,532.513215 17.0204866,532.955994 C16.9438088,531.670497 17.0680316,530.761664 17.6386358,530.466267 C17.798802,530.520207 18.0473979,530.571426 18.3602753,530.617632 Z M27.1081858,533.241092 C26.9707286,536.236777 26.0969581,540.79591 26.1394972,542.563202 L22.7710226,542.563202 C22.7710226,542.044096 22.0320881,535.068627 22.2109672,533.900921 C22.2109672,533.900921 21.8831153,533.904688 21.7758867,533.904688 C21.9368048,534.989278 21.4362828,542.036132 21.3170443,542.576336 L17.9564545,542.576336 C18.0064702,539.195837 17.2209146,535.613657 17.0378245,533.209152 C17.9512123,533.130218 18.6769553,532.026966 18.6988694,530.663165 C20.3664885,530.864302 23.3240096,530.943035 25.3522229,530.690464 C25.3749104,532.101302 26.1506691,533.233515 27.1081858,533.241092 Z" id="kuziqiuhuang" fill="#008B8B" fill-rule="nonzero"/>
          </g>
      </g>
  </svg>