<svg t="1584608977425" class="icon" viewBox="0 0 1193 1024" version="1.1" xmlns="http://www.w3.org/2000/svg" p-id="5938" width="128" height="128"><path d="M1169.65431 244.68L948.39831 23.41A79.63 79.63 0 0 0 885.73831 0.285a74.785 74.785 0 0 0-6.44-0.285H761.41531l-8.263 4.6c-43.677 24.296-99.392 37.666-156.898 37.666S483.00031 28.896 439.30831 4.63l-8.262-4.6H313.17831a80.312 80.312 0 0 0-71.05 42.44L23.40731 261.159A79.408 79.408 0 0 0 0.00031 317.682a79.408 79.408 0 0 0 23.409 56.475l159.8 159.848a79.297 79.297 0 0 0 49.26 23.076v386.21A80.788 80.788 0 0 0 313.16231 1024h566.184a80.788 80.788 0 0 0 80.709-80.709v-402.61a79.297 79.297 0 0 0 49.783-23.154l159.816-159.8a80.027 80.027 0 0 0 0-113.047z" p-id="5939" fill="#000080"></path></svg>